<?xml version="1.0" encoding="utf-8"?>
<!-- Generator: Adobe Illustrator 16.0.0, SVG Export Plug-In . SVG Version: 6.00 Build 0)  -->
<!DOCTYPE svg PUBLIC "-//W3C//DTD SVG 1.1//EN" "http://www.w3.org/Graphics/SVG/1.1/DTD/svg11.dtd">
<svg version="1.1" id="Layer_1" xmlns="http://www.w3.org/2000/svg" xmlns:xlink="http://www.w3.org/1999/xlink" x="0px" y="0px"
	 width="566.146px" height="100px" viewBox="0 0 566.146 100" enable-background="new 0 0 566.146 100" xml:space="preserve">
<g>
	<path fill="#FFFFFF" d="M82.855,22.335H95.76L73.099,79.102L56.2,43.767L39.224,79.102L16.64,22.335h12.905L41.221,55.75
		L56.2,19.646L71.333,55.75L82.855,22.335z"/>
	<path fill="#FFFFFF" d="M95.107,48.76c1.715-2.766,4.044-4.917,6.99-6.453c2.944-1.537,6.286-2.305,10.024-2.305
		c3.737,0,7.079,0.768,10.024,2.305c2.944,1.536,5.274,3.687,6.99,6.453c1.715,2.765,2.573,5.991,2.573,9.679
		c0,3.637-0.858,6.85-2.573,9.64c-1.716,2.792-4.046,4.955-6.99,6.491c-2.945,1.536-6.287,2.304-10.024,2.304
		c-3.739,0-7.081-0.768-10.024-2.304c-2.946-1.537-5.275-3.699-6.99-6.491c-1.716-2.791-2.573-6.003-2.573-9.64
		C92.534,54.751,93.391,51.525,95.107,48.76z M103.94,63.7c0.845,1.511,1.984,2.688,3.418,3.534
		c1.433,0.845,3.021,1.267,4.763,1.267c1.74,0,3.328-0.422,4.763-1.267c1.433-0.845,2.573-2.022,3.418-3.534
		c0.845-1.51,1.268-3.265,1.268-5.262c0-1.998-0.422-3.764-1.268-5.3c-0.845-1.537-1.985-2.714-3.418-3.534
		c-1.435-0.818-3.022-1.229-4.763-1.229c-1.742,0-3.33,0.411-4.763,1.229c-1.434,0.82-2.573,1.997-3.418,3.534
		c-0.845,1.536-1.267,3.303-1.267,5.3C102.673,60.436,103.096,62.19,103.94,63.7z"/>
	<path fill="#FFFFFF" d="M191.395,76.106h-9.986V54.598c0-2.407-0.411-4.212-1.229-5.416c-0.82-1.203-2.151-1.805-3.995-1.805
		c-1.229,0-2.305,0.269-3.226,0.807c-0.922,0.538-1.64,1.357-2.151,2.458c-0.513,1.102-0.769,2.419-0.769,3.956v21.508h-9.909
		V54.598c0-2.407-0.41-4.212-1.229-5.416c-0.82-1.203-2.151-1.805-3.994-1.805c-1.229,0-2.305,0.269-3.227,0.807
		c-0.922,0.538-1.639,1.357-2.151,2.458c-0.512,1.102-0.768,2.419-0.768,3.956v21.508h-9.602V40.771h9.602v5.224
		c1.024-1.945,2.381-3.43,4.071-4.455c1.69-1.024,3.712-1.537,6.068-1.537c2.612,0,4.763,0.513,6.453,1.537
		c1.69,1.025,2.919,2.535,3.687,4.532c1.28-1.997,2.854-3.507,4.724-4.532c1.869-1.024,4.007-1.537,6.415-1.537
		c2.611,0,4.736,0.526,6.375,1.575c1.638,1.05,2.854,2.587,3.649,4.609c0.793,2.024,1.19,4.469,1.19,7.336V76.106z"/>
	<path fill="#FFFFFF" d="M207.833,74.57c-2.869-1.537-5.083-3.674-6.645-6.414c-1.563-2.739-2.343-5.979-2.343-9.717
		c0-3.79,0.78-7.054,2.343-9.794c1.562-2.739,3.776-4.865,6.645-6.376c2.867-1.51,6.247-2.266,10.14-2.266
		c3.891,0,7.208,0.705,9.948,2.113c2.739,1.409,4.826,3.457,6.26,6.145c1.433,2.688,2.151,5.928,2.151,9.717
		c0,0.461-0.013,0.948-0.039,1.459c-0.026,0.512-0.064,0.922-0.115,1.229H204.53v-6.146h22.968l-2.688,3.534
		c0.204-0.307,0.396-0.729,0.576-1.268c0.179-0.538,0.269-0.985,0.269-1.344c0-1.74-0.321-3.226-0.96-4.455
		c-0.641-1.229-1.549-2.201-2.727-2.919c-1.178-0.717-2.561-1.076-4.148-1.076c-1.947,0-3.572,0.423-4.878,1.268
		c-1.306,0.845-2.304,2.101-2.996,3.764c-0.691,1.665-1.063,3.726-1.114,6.184c0,2.356,0.346,4.353,1.037,5.992
		c0.691,1.639,1.728,2.894,3.111,3.764c1.383,0.872,3.046,1.306,4.993,1.306c2.201,0,4.083-0.423,5.646-1.268
		c1.562-0.845,2.854-2.112,3.879-3.802l8.68,2.688c-1.843,3.33-4.29,5.826-7.336,7.489c-3.047,1.665-6.696,2.497-10.946,2.497
		C214.055,76.874,210.7,76.106,207.833,74.57z"/>
	<path fill="#FFFFFF" d="M265.29,49.22c-0.922-1.229-2.408-1.843-4.455-1.843c-1.383,0-2.612,0.295-3.687,0.883
		c-1.076,0.589-1.896,1.421-2.458,2.497c-0.564,1.075-0.845,2.356-0.845,3.841v21.508h-9.986V40.771h9.986v5.377
		c1.075-1.998,2.497-3.521,4.263-4.571c1.767-1.049,3.904-1.575,6.414-1.575c4.199,0,7.323,1.191,9.372,3.572
		c2.047,2.381,3.073,5.697,3.073,9.947v22.584h-10.293V54.598C266.673,52.243,266.212,50.45,265.29,49.22z"/>
	<path fill="#FFFFFF" d="M298.858,22.335v53.771H287.72V22.335H298.858z"/>
	<path fill="#FFFFFF" d="M330.966,49.22c-0.922-1.229-2.408-1.843-4.455-1.843c-1.383,0-2.612,0.295-3.687,0.883
		c-1.076,0.589-1.896,1.421-2.458,2.497c-0.564,1.075-0.845,2.356-0.845,3.841v21.508h-9.986V40.771h9.986v5.377
		c1.075-1.998,2.497-3.521,4.263-4.571c1.767-1.049,3.904-1.575,6.414-1.575c4.199,0,7.323,1.191,9.372,3.572
		c2.047,2.381,3.073,5.697,3.073,9.947v22.584h-10.293V54.598C332.349,52.243,331.888,50.45,330.966,49.22z"/>
	<path fill="#FFCA41" d="M340.338,22.335h39.944v9.909h-14.519v43.862h-10.984V32.244h-14.441V22.335z"/>
	<path fill="#FFCA41" d="M384.507,74.57c-2.869-1.537-5.083-3.674-6.645-6.414c-1.563-2.739-2.343-5.979-2.343-9.717
		c0-3.79,0.78-7.054,2.343-9.794c1.562-2.739,3.776-4.865,6.645-6.376c2.867-1.51,6.247-2.266,10.14-2.266
		c3.891,0,7.208,0.705,9.948,2.113c2.739,1.409,4.826,3.457,6.26,6.145c1.433,2.688,2.151,5.928,2.151,9.717
		c0,0.461-0.013,0.948-0.039,1.459c-0.026,0.512-0.064,0.922-0.115,1.229h-31.648v-6.146h22.968l-2.688,3.534
		c0.204-0.307,0.396-0.729,0.576-1.268c0.179-0.538,0.269-0.985,0.269-1.344c0-1.74-0.321-3.226-0.96-4.455
		c-0.641-1.229-1.549-2.201-2.727-2.919c-1.178-0.717-2.561-1.076-4.148-1.076c-1.947,0-3.572,0.423-4.878,1.268
		c-1.306,0.845-2.304,2.101-2.996,3.764c-0.691,1.665-1.063,3.726-1.114,6.184c0,2.356,0.346,4.353,1.037,5.992
		c0.691,1.639,1.728,2.894,3.111,3.764c1.383,0.872,3.046,1.306,4.993,1.306c2.201,0,4.083-0.423,5.646-1.268
		c1.562-0.845,2.854-2.112,3.879-3.802l8.68,2.688c-1.843,3.33-4.29,5.826-7.336,7.489c-3.047,1.665-6.696,2.497-10.946,2.497
		C390.729,76.874,387.374,76.106,384.507,74.57z"/>
	<path fill="#FFCA41" d="M429.443,63.815c0.922,1.536,2.163,2.74,3.726,3.61c1.562,0.872,3.29,1.306,5.185,1.306
		c1.537,0,3.021-0.242,4.456-0.729c1.433-0.486,2.727-1.152,3.879-1.997c1.152-0.845,2.036-1.831,2.65-2.958v10.216
		c-1.229,1.127-2.83,2.011-4.801,2.65c-1.972,0.64-4.263,0.96-6.875,0.96c-3.739,0-7.105-0.768-10.101-2.304
		c-2.996-1.537-5.352-3.699-7.067-6.491c-1.716-2.791-2.573-6.003-2.573-9.64c0-3.688,0.857-6.914,2.573-9.679
		c1.715-2.766,4.071-4.917,7.067-6.453c2.996-1.537,6.362-2.305,10.101-2.305c2.612,0,4.903,0.321,6.875,0.96
		c1.971,0.641,3.572,1.498,4.801,2.573v10.216c-0.615-1.125-1.524-2.112-2.727-2.957c-1.204-0.845-2.523-1.498-3.956-1.959
		c-1.434-0.461-2.869-0.691-4.302-0.691c-1.895,0-3.624,0.449-5.185,1.344c-1.563,0.896-2.804,2.112-3.726,3.649
		c-0.921,1.536-1.382,3.303-1.382,5.3C428.061,60.487,428.522,62.279,429.443,63.815z"/>
	<path fill="#FFCA41" d="M468.082,76.106h-9.986V16.19h9.986V76.106z M479.566,49.22c-0.896-1.229-2.395-1.843-4.494-1.843
		c-1.383,0-2.612,0.295-3.687,0.883c-1.076,0.589-1.896,1.421-2.458,2.497c-0.564,1.075-0.845,2.356-0.845,3.841h-1.997
		c0-2.816,0.473-5.351,1.421-7.605c0.947-2.253,2.368-4.045,4.263-5.377c1.894-1.331,4.225-1.997,6.99-1.997
		c2.766,0,5.043,0.512,6.836,1.536c1.792,1.025,3.123,2.548,3.995,4.57c0.87,2.024,1.306,4.494,1.306,7.413v22.968h-9.986V54.598
		C480.91,52.243,480.461,50.45,479.566,49.22z"/>
</g>
</svg>
